<svg version="1.1" xmlns="http://www.w3.org/2000/svg" style="display: block;" viewBox="0 0 2048 2048" width="1024" height="1024">
<defs>
	<linearGradient id="Gradient1" gradientUnits="userSpaceOnUse" x1="456.436" y1="1147.38" x2="489.38" y2="1320.65">
		<stop class="stop0" offset="0" stop-opacity="1" stop-color="rgb(52,64,102)"/>
		<stop class="stop1" offset="1" stop-opacity="1" stop-color="rgb(60,88,125)"/>
	</linearGradient>
	<linearGradient id="Gradient2" gradientUnits="userSpaceOnUse" x1="539.291" y1="1285.46" x2="573.896" y2="1463.51">
		<stop class="stop0" offset="0" stop-opacity="1" stop-color="rgb(55,75,115)"/>
		<stop class="stop1" offset="1" stop-opacity="1" stop-color="rgb(61,133,159)"/>
	</linearGradient>
	<linearGradient id="Gradient3" gradientUnits="userSpaceOnUse" x1="538.018" y1="755.451" x2="584.535" y2="558.444">
		<stop class="stop0" offset="0" stop-opacity="1" stop-color="rgb(85,19,61)"/>
		<stop class="stop1" offset="1" stop-opacity="1" stop-color="rgb(125,25,76)"/>
	</linearGradient>
	<linearGradient id="Gradient4" gradientUnits="userSpaceOnUse" x1="427.071" y1="850.448" x2="443.068" y2="697.439">
		<stop class="stop0" offset="0" stop-opacity="1" stop-color="rgb(104,54,91)"/>
		<stop class="stop1" offset="1" stop-opacity="1" stop-color="rgb(137,62,91)"/>
	</linearGradient>
	<linearGradient id="Gradient5" gradientUnits="userSpaceOnUse" x1="1589.86" y1="1146.92" x2="1555.52" y2="1318.16">
		<stop class="stop0" offset="0" stop-opacity="1" stop-color="rgb(54,62,100)"/>
		<stop class="stop1" offset="1" stop-opacity="1" stop-color="rgb(63,86,124)"/>
	</linearGradient>
	<linearGradient id="Gradient6" gradientUnits="userSpaceOnUse" x1="1420.23" y1="755.895" x2="1562.51" y2="679.603">
		<stop class="stop0" offset="0" stop-opacity="1" stop-color="rgb(27,49,96)"/>
		<stop class="stop1" offset="1" stop-opacity="1" stop-color="rgb(63,74,122)"/>
	</linearGradient>
	<linearGradient id="Gradient7" gradientUnits="userSpaceOnUse" x1="1731.86" y1="1013.01" x2="1227.28" y2="350.736">
		<stop class="stop0" offset="0" stop-opacity="1" stop-color="rgb(0,0,21)"/>
		<stop class="stop1" offset="1" stop-opacity="1" stop-color="rgb(22,38,98)"/>
	</linearGradient>
	<linearGradient id="Gradient8" gradientUnits="userSpaceOnUse" x1="1362.41" y1="1574.3" x2="1058.46" y2="1024.99">
		<stop class="stop0" offset="0" stop-opacity="1" stop-color="rgb(0,37,68)"/>
		<stop class="stop1" offset="1" stop-opacity="1" stop-color="rgb(97,65,73)"/>
	</linearGradient>
	<linearGradient id="Gradient9" gradientUnits="userSpaceOnUse" x1="867.279" y1="555.615" x2="931.891" y2="608.033">
		<stop class="stop0" offset="0" stop-opacity="1" stop-color="rgb(255,183,69)"/>
		<stop class="stop1" offset="1" stop-opacity="1" stop-color="rgb(255,248,120)"/>
	</linearGradient>
	<linearGradient id="Gradient10" gradientUnits="userSpaceOnUse" x1="1293.81" y1="465.597" x2="1341.76" y2="418.247">
		<stop class="stop0" offset="0" stop-opacity="1" stop-color="rgb(252,154,78)"/>
		<stop class="stop1" offset="1" stop-opacity="1" stop-color="rgb(255,184,87)"/>
	</linearGradient>
	<linearGradient id="Gradient11" gradientUnits="userSpaceOnUse" x1="1048.85" y1="852.251" x2="708" y2="1458.99">
		<stop class="stop0" offset="0" stop-opacity="1" stop-color="rgb(87,50,103)"/>
		<stop class="stop1" offset="1" stop-opacity="1" stop-color="rgb(161,73,141)"/>
	</linearGradient>
</defs>
<path transform="translate(0,0)" fill="rgb(26,23,47)" d="M 0 0 L 2048 0 L 2048 2048 L 0 2048 L 0 0 z"/>
<path transform="translate(0,0)" fill="url(#Gradient11)" d="M 1139.27 358.758 C 1149.13 356.6 1160.01 356.16 1170.1 355.708 C 1227.6 353.127 1284.51 368.193 1333.2 398.886 C 1360.63 416.372 1386.26 438.502 1405.98 464.5 C 1412.99 473.74 1418.69 484.41 1426.18 493.189 C 1424.1 496.843 1420.8 499.83 1417.91 502.86 C 1403.23 526.314 1384.9 548.148 1369.13 570.993 L 1367.66 572.688 C 1369 575.704 1370.32 577.972 1372.41 580.526 L 1357.09 599.397 C 1342.04 620.172 1326.21 640.344 1311.34 661.248 C 1297.61 680.568 1284.2 702.716 1267.93 719.955 C 1267.94 751.234 1269.78 782.647 1270.89 813.912 C 1271.88 841.574 1272.04 869.527 1274.05 897.124 L 1294.73 892.32 C 1317.88 888.512 1341.1 879.448 1361.9 868.708 C 1370.9 864.062 1379.54 858.698 1388.74 854.442 L 1389.81 853.951 C 1393.21 851.963 1396.58 849.925 1399.91 847.837 C 1430.72 888.428 1460.14 930.227 1490.24 971.358 C 1512.89 1002.32 1536.14 1032.59 1559.5 1063 C 1536.02 1091.04 1515.13 1121.13 1493.35 1150.49 C 1456.71 1199.06 1420.55 1248 1384.88 1297.3 L 1150.15 1613.56 L 1066.27 1728.57 C 1053.91 1745.69 1038.45 1770.23 1025.13 1785.1 C 1012.39 1771.02 1002 1755.21 991.114 1739.7 C 980.702 1724.93 970.065 1710.32 959.208 1695.87 L 879.654 1588.8 C 864.124 1568.04 847.77 1547.61 832.929 1526.37 C 824.735 1518.56 813.136 1499.59 806.081 1489.83 C 788.503 1465.68 770.688 1441.71 752.64 1417.91 C 722.797 1378.46 693.87 1338.38 664.339 1298.7 C 628.887 1251.07 592.469 1204.04 556.474 1156.81 C 533.543 1126.72 511.215 1096.19 487.944 1066.36 C 497.451 1051.69 508.539 1037.74 518.884 1023.61 C 537.596 997.687 556.581 971.961 575.836 946.439 C 609.46 901.542 641.92 855.841 676.057 811.319 C 723.492 743.201 775.517 677.582 825.975 611.659 L 887.079 532.153 C 900.922 513.946 914.229 495.107 929.047 477.681 C 980.231 417.49 1058.78 365.253 1139.27 358.758 z"/>
<path transform="translate(0,0)" fill="rgb(240,88,88)" d="M 1139.27 358.758 C 1149.13 356.6 1160.01 356.16 1170.1 355.708 C 1227.6 353.127 1284.51 368.193 1333.2 398.886 C 1360.63 416.372 1386.26 438.502 1405.98 464.5 C 1412.99 473.74 1418.69 484.41 1426.18 493.189 C 1424.1 496.843 1420.8 499.83 1417.91 502.86 C 1403.23 526.314 1384.9 548.148 1369.13 570.993 L 1367.66 572.688 C 1369 575.704 1370.32 577.972 1372.41 580.526 L 1357.09 599.397 C 1342.04 620.172 1326.21 640.344 1311.34 661.248 C 1297.61 680.568 1284.2 702.716 1267.93 719.955 C 1267.94 751.234 1269.78 782.647 1270.89 813.912 C 1271.88 841.574 1272.04 869.527 1274.05 897.124 L 1294.73 892.32 C 1311.43 936.072 1314.52 991.412 1310.42 1037.8 C 1309.12 1052.5 1303.97 1074.63 1304.31 1087.9 C 1299.46 1115.68 1293.89 1144.89 1283.9 1171.33 C 1270.79 1181.09 1258.79 1192.81 1246.7 1203.79 C 1230.44 1218.56 1214.07 1232.72 1196.37 1245.75 C 1079.2 1332.01 956.477 1379.78 819.311 1423.71 C 828.945 1418.45 839.388 1414.5 849.318 1409.8 C 863.984 1402.87 878.247 1394.83 892.117 1386.42 C 918.413 1370.49 944.935 1353.24 969.258 1334.44 C 1060.85 1263.67 1146.18 1163.93 1188.81 1055.45 C 1180.34 1061.14 1172.41 1067.91 1164.25 1074.07 C 1149.45 1085.23 1134.47 1095.89 1118.74 1105.69 C 1053.78 1146.15 983.066 1181.68 911.657 1208.97 C 865.582 1226.58 818.688 1240.84 771.411 1254.77 C 747.24 1261.9 723.06 1270.67 698.559 1276.5 L 698.62 1275.76 C 710.956 1269.14 729.889 1264.05 743.422 1258.75 C 780.293 1244.31 814.198 1225.38 847.514 1204.06 C 958.497 1133.05 1024.24 1047.87 1076.53 928.079 C 1007.54 1002.38 861.628 1058.55 766.297 1088.13 C 736.618 1097.34 706.27 1104.67 676.248 1112.68 C 649.413 1119.83 622.384 1129.8 595.042 1134.35 L 595.454 1133.75 C 597.381 1133.24 599.215 1132.74 601.053 1131.96 C 614.744 1126.15 629.83 1122.59 643.99 1117.96 C 660.606 1112.37 676.996 1106.13 693.122 1099.26 C 706.556 1093.67 719.231 1086.83 732.145 1080.16 C 810.088 1039.94 882.505 985.044 928.363 909.06 C 935.843 896.666 943.331 883.752 948.768 870.321 L 949.25 869.1 L 947.822 868.506 C 949.226 865.425 950.278 862.927 950.645 859.545 C 945.544 858.882 941.604 854.299 937.85 851.012 C 934.499 853.062 931.095 855.883 927.006 855.53 C 911.155 862.582 896.423 873.024 880.158 879.065 L 880.087 878.103 C 870.465 878.714 827.309 904.304 812.692 906.541 C 811.417 901.504 810.562 898.425 806.466 894.821 C 806.164 894.555 805.847 894.305 805.537 894.047 C 806.383 889.627 846.352 860.327 853.131 852.459 L 852.768 850.4 C 856.91 843.709 865.33 836.634 870.691 830.569 C 880.613 819.29 889.477 807.123 897.173 794.223 L 896.426 794.113 L 895.897 793.136 C 899.918 786.787 904.295 780.453 907.659 773.736 L 906.633 772.865 C 904.538 773.496 903.193 773.639 901.015 773.416 C 900.811 773.141 900.638 772.841 900.404 772.592 C 898.214 770.27 893.703 768.815 890.852 767.232 C 874.665 758.249 860.068 762.182 843.736 767.825 C 840.735 768.862 836.569 770.857 833.421 770.572 C 832.965 770.531 832.512 770.459 832.057 770.403 C 819.112 774.138 806.573 779.532 793.794 783.845 C 762.691 794.343 722.57 806.626 690.367 811.63 L 689.596 811.876 C 685.164 811.278 680.531 811.427 676.057 811.319 C 723.492 743.201 775.517 677.582 825.975 611.659 L 887.079 532.153 C 900.922 513.946 914.229 495.107 929.047 477.681 C 980.231 417.49 1058.78 365.253 1139.27 358.758 z"/>
<path transform="translate(0,0)" fill="rgb(250,207,119)" d="M 1183.88 445.977 C 1197.64 446.914 1211.31 447.791 1224.85 450.569 C 1265.62 459.206 1302.5 480.783 1330.01 512.086 C 1342.92 526.955 1362.35 552.214 1369.13 570.993 L 1367.66 572.688 C 1369 575.704 1370.32 577.972 1372.41 580.526 L 1357.09 599.397 C 1342.04 620.172 1326.21 640.344 1311.34 661.248 C 1297.61 680.568 1284.2 702.716 1267.93 719.955 C 1259.08 724.485 1251.02 732.377 1242.12 737.445 C 1205.18 758.488 1158.15 761.573 1117.64 750.338 C 1062.38 735.012 1021.49 693.802 994.962 644.349 C 987.197 629.87 981.572 613.871 973.449 599.774 C 973.308 599.531 973.163 599.291 973.02 599.049 L 976.692 589.62 C 979.227 583.944 981.585 578.208 985.092 573.048 C 993.676 554.59 1006.77 536.275 1020.29 521.123 C 1050.23 487.583 1093.67 461.466 1137.59 451.468 C 1152.91 447.979 1168.25 446.805 1183.88 445.977 z"/>
<path transform="translate(0,0)" fill="rgb(250,207,119)" d="M 976.692 589.62 C 995.111 591.583 1013.55 593.375 1032 594.995 C 1048.48 596.404 1070.38 595.696 1085.86 601.591 C 1092.56 604.14 1097.66 609.69 1102.04 615.16 C 1108.4 623.119 1114.14 631.67 1121.14 639.094 C 1137.15 656.082 1159.92 666.887 1183 669.415 C 1209.53 672.484 1236.17 664.756 1256.93 647.972 C 1271.16 636.542 1281.34 622.604 1290.19 606.792 C 1313.15 606.433 1334.55 603.583 1357.09 599.397 C 1342.04 620.172 1326.21 640.344 1311.34 661.248 C 1297.61 680.568 1284.2 702.716 1267.93 719.955 C 1259.08 724.485 1251.02 732.377 1242.12 737.445 C 1205.18 758.488 1158.15 761.573 1117.64 750.338 C 1062.38 735.012 1021.49 693.802 994.962 644.349 C 987.197 629.87 981.572 613.871 973.449 599.774 C 973.308 599.531 973.163 599.291 973.02 599.049 L 976.692 589.62 z"/>
<path transform="translate(0,0)" fill="rgb(254,254,249)" d="M 1249.04 574.087 C 1252.88 571.441 1355.39 570.996 1367.66 572.688 C 1369 575.704 1370.32 577.972 1372.41 580.526 L 1357.09 599.397 C 1334.55 603.583 1313.15 606.433 1290.19 606.792 C 1281.34 622.604 1271.16 636.542 1256.93 647.972 C 1236.17 664.756 1209.53 672.484 1183 669.415 C 1159.92 666.887 1137.15 656.082 1121.14 639.094 C 1114.14 631.67 1108.4 623.119 1102.04 615.16 C 1097.66 609.69 1092.56 604.14 1085.86 601.591 C 1070.38 595.696 1048.48 596.404 1032 594.995 C 1013.55 593.375 995.111 591.583 976.692 589.62 C 979.227 583.944 981.585 578.208 985.092 573.048 C 1035.08 572.188 1085.07 571.87 1135.07 572.096 C 1134.98 603.25 1159.92 628.703 1191.07 629.247 C 1222.22 629.791 1248.04 605.225 1249.04 574.087 z"/>
<path transform="translate(0,0)" fill="rgb(26,23,47)" d="M 1135.07 572.096 C 1135.12 551.533 1146.25 532.594 1164.19 522.537 C 1182.13 512.48 1204.09 512.864 1221.66 523.541 C 1239.24 534.218 1249.7 553.534 1249.04 574.087 C 1248.04 605.225 1222.22 629.791 1191.07 629.247 C 1159.92 628.703 1134.98 603.25 1135.07 572.096 z"/>
<path transform="translate(0,0)" fill="rgb(254,254,249)" d="M 1208.09 539.78 C 1213.13 537.548 1219 538.239 1223.38 541.584 C 1227.77 544.929 1229.99 550.397 1229.18 555.854 C 1228.36 561.311 1224.64 565.891 1219.47 567.808 C 1211.8 570.648 1203.26 566.885 1200.19 559.31 C 1197.11 551.735 1200.61 543.087 1208.09 539.78 z"/>
<path transform="translate(0,0)" fill="rgb(249,153,90)" d="M 973.02 599.049 C 973.163 599.291 973.308 599.531 973.449 599.774 C 981.572 613.871 987.197 629.87 994.962 644.349 C 1021.49 693.802 1062.38 735.012 1117.64 750.338 C 1158.15 761.573 1205.18 758.488 1242.12 737.445 C 1251.02 732.377 1259.08 724.485 1267.93 719.955 C 1267.94 751.234 1269.78 782.647 1270.89 813.912 C 1271.88 841.574 1272.04 869.527 1274.05 897.124 C 1244.85 904.928 1210.97 906.317 1181 902.369 C 1113.62 893.675 1052.67 857.943 1012.18 803.39 C 992.397 777.165 974.873 735.449 969.058 702.857 C 964.873 679.399 964.721 655.383 966.817 631.7 C 967.763 621.001 971.479 610.908 972.856 600.365 L 973.02 599.049 z"/>
<path transform="translate(0,0)" fill="url(#Gradient10)" d="M 1139.27 358.758 C 1149.13 356.6 1160.01 356.16 1170.1 355.708 C 1227.6 353.127 1284.51 368.193 1333.2 398.886 C 1360.63 416.372 1386.26 438.502 1405.98 464.5 C 1412.99 473.74 1418.69 484.41 1426.18 493.189 C 1424.1 496.843 1420.8 499.83 1417.91 502.86 C 1403.23 526.314 1384.9 548.148 1369.13 570.993 C 1362.35 552.214 1342.92 526.955 1330.01 512.086 C 1302.5 480.783 1265.62 459.206 1224.85 450.569 C 1211.31 447.791 1197.64 446.914 1183.88 445.977 C 1196.5 442.847 1221.03 447.534 1233.73 450.895 C 1272.53 461.168 1309.91 483.976 1335.27 515.339 C 1345.33 527.772 1353.23 541.615 1362.7 554.448 C 1364.95 557.508 1367.07 564.353 1370.23 566.003 C 1374.39 560.111 1382.31 551.863 1384.38 545.165 C 1383.37 544.81 1382.36 544.423 1381.32 544.136 C 1379.05 543.51 1377.47 543.384 1375.37 542.044 C 1359.07 531.608 1348.87 514.562 1335.87 500.819 C 1328.84 493.383 1320.9 486.692 1314.09 479.061 C 1310.88 475.462 1308.96 470.948 1305.67 467.443 C 1299.75 461.129 1289.94 455.737 1282.95 450.228 C 1273.26 442.586 1264.92 433.929 1255.83 425.663 C 1247.31 417.908 1236.84 409.928 1229.69 400.934 C 1223.22 392.783 1220.88 383.07 1218.37 373.218 C 1216.02 371.314 1186.28 369.797 1181.71 369.842 C 1171.53 369.944 1157.37 372.846 1147.78 369.887 C 1147.5 369.803 1147.23 369.7 1146.96 369.606 L 1138.65 370.213 L 1137.6 368.866 C 1133.84 368.672 1130.51 370.608 1126.75 370.291 C 1125.3 367.639 1125.27 367.439 1125.63 364.442 C 1128.95 360.841 1133.62 362.281 1137.75 359.751 C 1138.27 359.436 1138.76 359.089 1139.27 358.758 z"/>
<path transform="translate(0,0)" fill="rgb(251,251,177)" d="M 1139.27 358.758 C 1149.13 356.6 1160.01 356.16 1170.1 355.708 C 1227.6 353.127 1284.51 368.193 1333.2 398.886 C 1360.63 416.372 1386.26 438.502 1405.98 464.5 C 1412.99 473.74 1418.69 484.41 1426.18 493.189 C 1424.1 496.843 1420.8 499.83 1417.91 502.86 C 1411.22 495.478 1406.4 485.711 1400.41 477.64 C 1387.62 460.388 1371.17 444.424 1354.66 430.718 C 1295.74 381.805 1222.52 362.505 1146.96 369.606 L 1138.65 370.213 L 1137.6 368.866 C 1133.84 368.672 1130.51 370.608 1126.75 370.291 C 1125.3 367.639 1125.27 367.439 1125.63 364.442 C 1128.95 360.841 1133.62 362.281 1137.75 359.751 C 1138.27 359.436 1138.76 359.089 1139.27 358.758 z"/>
<path transform="translate(0,0)" fill="url(#Gradient9)" d="M 676.057 811.319 C 723.492 743.201 775.517 677.582 825.975 611.659 L 887.079 532.153 C 900.922 513.946 914.229 495.107 929.047 477.681 C 980.231 417.49 1058.78 365.253 1139.27 358.758 C 1138.76 359.089 1138.27 359.436 1137.75 359.751 C 1133.62 362.281 1128.95 360.841 1125.63 364.442 C 1125.27 367.439 1125.3 367.639 1126.75 370.291 C 1130.51 370.608 1133.84 368.672 1137.6 368.866 L 1138.65 370.213 C 1138.33 370.335 1138.02 370.473 1137.7 370.58 C 1126.3 374.387 1111.35 375.539 1099.17 378.846 C 1068 387.309 1035 403.813 1008.49 422.324 C 985.645 438.277 962.548 457.803 943.945 478.495 C 920.453 504.625 900.531 534.654 879.141 562.526 C 836.764 617.746 794.184 672.406 753.039 728.579 C 737.276 750.1 720.016 770.453 704.307 792.069 C 699.683 798.432 694.35 804.865 690.367 811.63 L 689.596 811.876 C 685.164 811.278 680.531 811.427 676.057 811.319 z"/>
<path transform="translate(0,0)" fill="rgb(57,60,98)" d="M 935.184 723.129 C 925.85 747.432 911.892 772.758 897.173 794.223 L 896.426 794.113 L 895.897 793.136 C 899.918 786.787 904.295 780.453 907.659 773.736 L 906.633 772.865 C 904.538 773.496 903.193 773.639 901.015 773.416 C 900.811 773.141 900.638 772.841 900.404 772.592 C 898.214 770.27 893.703 768.815 890.852 767.232 C 874.665 758.249 860.068 762.182 843.736 767.825 C 840.735 768.862 836.569 770.857 833.421 770.572 C 832.965 770.531 832.512 770.459 832.057 770.403 C 867.134 755.607 902.235 742.557 935.184 723.129 z"/>
<path transform="translate(0,0)" fill="rgb(57,60,98)" d="M 927.006 855.53 C 939.989 847.121 952.073 837.526 964.934 829.064 C 961.829 841.692 955.97 857.863 949.25 869.1 L 947.822 868.506 C 949.226 865.425 950.278 862.927 950.645 859.545 C 945.544 858.882 941.604 854.299 937.85 851.012 C 934.499 853.062 931.095 855.883 927.006 855.53 z"/>
<path transform="translate(0,0)" fill="url(#Gradient8)" d="M 676.057 811.319 C 680.531 811.427 685.164 811.278 689.596 811.876 C 676.376 830.948 661.918 849.2 648.13 867.869 C 614.74 913.081 581.039 958.212 548.323 1003.9 C 533.413 1024.73 516.928 1045.36 503.767 1067.33 C 526.616 1095.34 547.187 1125.09 569.124 1153.79 L 757.098 1403.08 L 810.966 1475.69 C 817.84 1484.86 834.197 1503.89 838.151 1513.13 C 848.697 1526.04 858.468 1539.59 868.733 1552.72 C 914.136 1542.88 964.899 1517.5 1005.58 1495.81 C 1106.22 1442.26 1189.25 1360.81 1244.72 1261.22 C 1260.92 1232.02 1274.19 1203.34 1283.9 1171.33 C 1293.89 1144.89 1299.46 1115.68 1304.31 1087.9 C 1303.97 1074.63 1309.12 1052.5 1310.42 1037.8 C 1314.52 991.412 1311.43 936.072 1294.73 892.32 C 1317.88 888.512 1341.1 879.448 1361.9 868.708 C 1370.9 864.062 1379.54 858.698 1388.74 854.442 L 1389.81 853.951 C 1393.21 851.963 1396.58 849.925 1399.91 847.837 C 1430.72 888.428 1460.14 930.227 1490.24 971.358 C 1512.89 1002.32 1536.14 1032.59 1559.5 1063 C 1536.02 1091.04 1515.13 1121.13 1493.35 1150.49 C 1456.71 1199.06 1420.55 1248 1384.88 1297.3 L 1150.15 1613.56 L 1066.27 1728.57 C 1053.91 1745.69 1038.45 1770.23 1025.13 1785.1 C 1012.39 1771.02 1002 1755.21 991.114 1739.7 C 980.702 1724.93 970.065 1710.32 959.208 1695.87 L 879.654 1588.8 C 864.124 1568.04 847.77 1547.61 832.929 1526.37 C 824.735 1518.56 813.136 1499.59 806.081 1489.83 C 788.503 1465.68 770.688 1441.71 752.64 1417.91 C 722.797 1378.46 693.87 1338.38 664.339 1298.7 C 628.887 1251.07 592.469 1204.04 556.474 1156.81 C 533.543 1126.72 511.215 1096.19 487.944 1066.36 C 497.451 1051.69 508.539 1037.74 518.884 1023.61 C 537.596 997.687 556.581 971.961 575.836 946.439 C 609.46 901.542 641.92 855.841 676.057 811.319 z"/>
<path transform="translate(0,0)" fill="rgb(26,23,47)" d="M 1304.31 1087.9 C 1306.25 1109.13 1301.13 1130.39 1296.96 1151.1 C 1292.59 1172.81 1287.84 1194.12 1280.95 1215.2 C 1251.55 1305.07 1190.22 1407.47 1129.78 1480.15 C 1084.35 1534.71 1033.56 1584.57 978.169 1628.97 C 967.937 1637.17 955.339 1648.78 943.079 1653.26 C 929.069 1636.1 916.242 1617.72 903.207 1599.81 C 891.762 1584.08 879.918 1568.63 868.733 1552.72 C 914.136 1542.88 964.899 1517.5 1005.58 1495.81 C 1106.22 1442.26 1189.25 1360.81 1244.72 1261.22 C 1260.92 1232.02 1274.19 1203.34 1283.9 1171.33 C 1293.89 1144.89 1299.46 1115.68 1304.31 1087.9 z"/>
<path transform="translate(0,0)" fill="rgb(53,219,217)" d="M 676.057 811.319 C 680.531 811.427 685.164 811.278 689.596 811.876 C 676.376 830.948 661.918 849.2 648.13 867.869 C 614.74 913.081 581.039 958.212 548.323 1003.9 C 533.413 1024.73 516.928 1045.36 503.767 1067.33 C 526.616 1095.34 547.187 1125.09 569.124 1153.79 L 757.098 1403.08 L 810.966 1475.69 C 817.84 1484.86 834.197 1503.89 838.151 1513.13 C 848.697 1526.04 858.468 1539.59 868.733 1552.72 C 879.918 1568.63 891.762 1584.08 903.207 1599.81 C 916.242 1617.72 929.069 1636.1 943.079 1653.26 C 970.495 1690.67 998.304 1728.04 1024.96 1765.98 C 1035.02 1749.82 1046.64 1734.62 1057.87 1719.27 L 1103.64 1656.85 C 1144.4 1601.55 1184.53 1545.93 1225.9 1491.06 L 1543.56 1063.51 C 1530.91 1048.63 1519.52 1032.43 1507.8 1016.79 C 1484.44 985.791 1461.53 954.447 1439.09 922.772 C 1422.83 900.033 1403.96 878.029 1389.81 853.951 C 1393.21 851.963 1396.58 849.925 1399.91 847.837 C 1430.72 888.428 1460.14 930.227 1490.24 971.358 C 1512.89 1002.32 1536.14 1032.59 1559.5 1063 C 1536.02 1091.04 1515.13 1121.13 1493.35 1150.49 C 1456.71 1199.06 1420.55 1248 1384.88 1297.3 L 1150.15 1613.56 L 1066.27 1728.57 C 1053.91 1745.69 1038.45 1770.23 1025.13 1785.1 C 1012.39 1771.02 1002 1755.21 991.114 1739.7 C 980.702 1724.93 970.065 1710.32 959.208 1695.87 L 879.654 1588.8 C 864.124 1568.04 847.77 1547.61 832.929 1526.37 C 824.735 1518.56 813.136 1499.59 806.081 1489.83 C 788.503 1465.68 770.688 1441.71 752.64 1417.91 C 722.797 1378.46 693.87 1338.38 664.339 1298.7 C 628.887 1251.07 592.469 1204.04 556.474 1156.81 C 533.543 1126.72 511.215 1096.19 487.944 1066.36 C 497.451 1051.69 508.539 1037.74 518.884 1023.61 C 537.596 997.687 556.581 971.961 575.836 946.439 C 609.46 901.542 641.92 855.841 676.057 811.319 z"/>
<path transform="translate(0,0)" fill="rgb(249,153,90)" d="M 852.768 850.4 L 853.131 852.459 C 846.352 860.327 806.383 889.627 805.537 894.047 C 805.847 894.305 806.164 894.555 806.466 894.821 C 810.562 898.425 811.417 901.504 812.692 906.541 C 827.309 904.304 870.465 878.714 880.087 878.103 L 880.158 879.065 C 823.127 908.159 761.807 926.858 701.648 948.06 C 692.962 951.121 657.902 964.465 650.691 964.759 L 650.558 964.267 C 658.576 961.705 666.492 958.223 674.422 955.31 C 740.498 931.042 800.59 897.912 852.768 850.4 z"/>
<path transform="translate(0,0)" fill="url(#Gradient7)" d="M 1426.18 493.189 C 1426.23 492.859 1426.33 492.532 1426.34 492.197 C 1426.37 484.945 1416.58 478.987 1414.39 472.235 C 1411.76 464.16 1402.83 459.781 1399.19 452.436 C 1397.74 449.523 1394.76 448.44 1392.68 446.079 C 1389.06 441.945 1386.29 437.574 1382.33 433.613 C 1356.61 407.89 1316.4 382.163 1281.58 371.613 C 1275.51 369.771 1270.27 366.542 1264.35 364.544 C 1255.05 361.407 1242.64 359.967 1232.83 357.868 C 1229.76 357.212 1227.2 356.716 1224.46 355.125 C 1234.52 350.297 1254.79 358.917 1264.76 362.42 C 1269.92 364.234 1274.96 366.122 1280.29 367.392 C 1287.52 369.118 1294.54 373.149 1301.3 376.248 C 1348.82 398.051 1396.58 437.207 1423.9 482.217 C 1427.1 487.493 1430.83 498.752 1437.27 500.309 C 1439.98 500.963 1442.46 501.391 1444.84 499.964 C 1440.82 498.148 1436.66 497.668 1432.71 495.403 C 1432.35 494.048 1431.96 492.706 1431.6 491.353 C 1430 485.31 1425.86 481.695 1422.43 476.624 C 1424.28 475.125 1427.67 475.419 1430.05 475.199 C 1441.78 476.823 1454.98 475.751 1466.87 475.898 C 1493.42 472.091 1521.8 478.394 1548.34 473.989 C 1566.55 489.795 1582.98 512.103 1596.96 531.739 C 1602.71 539.804 1608.48 549.991 1615.29 557.041 L 1616.35 554.857 C 1628.97 560.978 1678.72 655.058 1684.82 670.903 C 1692.53 683.407 1697.74 698.419 1703.28 712.009 C 1742.58 714.292 1782.55 712.958 1821.94 713.045 C 1838.75 713.082 1856.66 711.881 1873.3 714.243 C 1840.38 747.123 1807.66 780.193 1775.13 813.453 C 1756.69 832.515 1739.1 853.111 1719.86 871.307 C 1729.11 899.383 1727.72 984.143 1726.86 1016.82 L 1712.36 1017.17 C 1712.92 1017.36 1713.48 1017.57 1714.05 1017.75 C 1716.48 1018.51 1718.61 1018.26 1721.1 1018.13 C 1722.67 1018.04 1723.99 1018.21 1725.51 1018.56 C 1723.56 1019.7 1722.7 1019.59 1720.52 1019.7 C 1692.7 1021.14 1664.75 1020.54 1636.86 1020.8 C 1625.18 1020.9 1612.42 1020.17 1600.91 1021.78 C 1598.08 1021.86 1593.86 1021.44 1591.55 1023.12 C 1592.3 1031.82 1613.22 1056.43 1619.1 1064.2 L 1618.88 1064.84 L 1617.25 1063.69 L 1614.93 1064.29 C 1611.17 1055.68 1603.61 1046.74 1598.14 1039.03 C 1582.73 1017.63 1567.08 996.411 1551.18 975.379 C 1531.87 949.606 1513.54 923.332 1494.73 897.258 C 1490.24 891.043 1476.6 875.243 1475.33 868.598 C 1474.33 866.683 1472.77 865.244 1471.31 863.664 C 1465.41 861.163 1449.61 836.682 1445.92 830.676 C 1443.03 827.503 1441.07 823.753 1438.92 820.063 C 1426.34 829.353 1411.8 837.88 1399.91 847.837 C 1396.58 849.925 1393.21 851.963 1389.81 853.951 L 1388.74 854.442 C 1379.54 858.698 1370.9 864.062 1361.9 868.708 C 1341.1 879.448 1317.88 888.512 1294.73 892.32 L 1274.05 897.124 C 1272.04 869.527 1271.88 841.574 1270.89 813.912 C 1269.78 782.647 1267.94 751.234 1267.93 719.955 C 1284.2 702.716 1297.61 680.568 1311.34 661.248 C 1326.21 640.344 1342.04 620.172 1357.09 599.397 L 1372.41 580.526 C 1370.32 577.972 1369 575.704 1367.66 572.688 L 1369.13 570.993 C 1384.9 548.148 1403.23 526.314 1417.91 502.86 C 1420.8 499.83 1424.1 496.843 1426.18 493.189 z"/>
<path transform="translate(0,0)" fill="rgb(124,22,71)" d="M 1445.92 830.676 L 1447.39 830.598 C 1453.08 839.074 1458.92 848.013 1465.85 855.532 C 1484.99 855.756 1504.75 854.697 1523.83 855.737 C 1534.41 856.353 1550.51 853.256 1560.02 857.389 L 1562.18 860.181 C 1577.46 894.009 1574.16 936.759 1562.56 970.994 C 1591 939.302 1620.24 902.852 1629.82 860.382 C 1658.76 862.14 1688.41 861.052 1717.43 860.775 C 1695.7 882.529 1675.77 906.212 1655.14 929.01 C 1630.31 956.436 1604.34 983.47 1581.87 1012.88 C 1557.53 981.237 1533.62 949.262 1510.16 916.967 C 1498.61 901.004 1487.76 883.825 1475.33 868.598 C 1474.33 866.683 1472.77 865.244 1471.31 863.664 C 1465.41 861.163 1449.61 836.682 1445.92 830.676 z"/>
<path transform="translate(0,0)" fill="rgb(6,1,28)" d="M 1445.92 830.676 L 1447.39 830.598 C 1453.08 839.074 1458.92 848.013 1465.85 855.532 C 1484.99 855.756 1504.75 854.697 1523.83 855.737 C 1534.41 856.353 1550.51 853.256 1560.02 857.389 L 1562.18 860.181 L 1500.15 860.242 C 1491.01 860.225 1479.36 858.834 1470.5 860.614 C 1470.75 862.907 1470.43 861.907 1471.31 863.664 C 1465.41 861.163 1449.61 836.682 1445.92 830.676 z"/>
<path transform="translate(0,0)" fill="rgb(169,26,72)" d="M 1548.34 473.989 C 1566.55 489.795 1582.98 512.103 1596.96 531.739 C 1602.71 539.804 1608.48 549.991 1615.29 557.041 C 1625.09 571.247 1634.46 585.739 1643.4 600.498 C 1623.38 600.625 1602.8 601.5 1582.81 600.465 C 1578.92 596.131 1575.07 591.766 1571.26 587.369 C 1545.29 550.599 1504.04 528.525 1465.76 507.322 C 1458.9 504.618 1452.04 501.648 1444.84 499.964 C 1440.82 498.148 1436.66 497.668 1432.71 495.403 C 1432.35 494.048 1431.96 492.706 1431.6 491.353 C 1430 485.31 1425.86 481.695 1422.43 476.624 C 1424.28 475.125 1427.67 475.419 1430.05 475.199 C 1441.78 476.823 1454.98 475.751 1466.87 475.898 C 1493.42 472.091 1521.8 478.394 1548.34 473.989 z"/>
<path transform="translate(0,0)" fill="rgb(240,88,88)" d="M 1430.05 475.199 C 1441.78 476.823 1454.98 475.751 1466.87 475.898 L 1468.05 476.016 C 1475.47 476.7 1483.14 475.778 1490.44 476.785 C 1476.49 479.929 1447.8 474.842 1431.82 477.304 C 1431.75 477.756 1431.69 478.213 1431.6 478.661 C 1431.19 480.473 1430.63 481.226 1429.49 482.622 C 1429.94 484.263 1430.24 484.674 1431.38 485.957 C 1432.72 487.472 1433.13 488.393 1433.94 490.18 C 1435.5 493.62 1437.09 495.897 1440.82 497.349 C 1448.62 500.385 1459.84 500.56 1466.1 506.635 L 1465.76 507.322 C 1458.9 504.618 1452.04 501.648 1444.84 499.964 C 1440.82 498.148 1436.66 497.668 1432.71 495.403 C 1432.35 494.048 1431.96 492.706 1431.6 491.353 C 1430 485.31 1425.86 481.695 1422.43 476.624 C 1424.28 475.125 1427.67 475.419 1430.05 475.199 z"/>
<path transform="translate(0,0)" fill="rgb(57,60,98)" d="M 1719.86 871.307 C 1729.11 899.383 1727.72 984.143 1726.86 1016.82 L 1712.36 1017.17 L 1588.37 1017.26 C 1614.15 986.557 1641.18 957.099 1668.22 927.51 C 1685.37 908.745 1702.13 889.525 1719.86 871.307 z"/>
<path transform="translate(0,0)" fill="rgb(124,22,71)" d="M 1615.29 557.041 L 1616.35 554.857 C 1628.97 560.978 1678.72 655.058 1684.82 670.903 C 1682.35 672.719 1684.01 673.594 1682.42 674.947 C 1687.29 687.291 1692.57 699.5 1697.66 711.752 L 1636.13 711.651 C 1626.07 674.205 1611.06 634.374 1584.98 604.996 C 1584.96 605.089 1584.96 605.192 1584.91 605.275 C 1584.7 605.631 1584.44 605.958 1584.2 606.3 L 1584.98 605.407 L 1583.16 604.017 L 1583.75 604.135 C 1578.76 599.705 1574.77 594.982 1570.86 589.577 L 1571.26 587.369 C 1575.07 591.766 1578.92 596.131 1582.81 600.465 C 1602.8 601.5 1623.38 600.625 1643.4 600.498 C 1634.46 585.739 1625.09 571.247 1615.29 557.041 z"/>
<path transform="translate(0,0)" fill="rgb(6,1,28)" d="M 1615.29 557.041 L 1616.35 554.857 C 1628.97 560.978 1678.72 655.058 1684.82 670.903 C 1682.35 672.719 1684.01 673.594 1682.42 674.947 C 1670.33 651.79 1659 628.273 1646.63 605.201 C 1626.55 607.075 1605.19 605.436 1584.98 604.996 C 1584.96 605.089 1584.96 605.192 1584.91 605.275 C 1584.7 605.631 1584.44 605.958 1584.2 606.3 L 1584.98 605.407 L 1583.16 604.017 L 1583.75 604.135 C 1578.76 599.705 1574.77 594.982 1570.86 589.577 L 1571.26 587.369 C 1575.07 591.766 1578.92 596.131 1582.81 600.465 C 1602.8 601.5 1623.38 600.625 1643.4 600.498 C 1634.46 585.739 1625.09 571.247 1615.29 557.041 z"/>
<path transform="translate(0,0)" fill="rgb(169,26,72)" d="M 1482.81 769.624 C 1523.33 787.436 1542.68 814.958 1560.02 855.009 C 1548.09 855.182 1535.69 854.698 1523.83 855.737 C 1504.75 854.697 1484.99 855.756 1465.85 855.532 C 1458.92 848.013 1453.08 839.074 1447.39 830.598 L 1439.73 818.574 C 1455.56 803.249 1469.72 787.366 1482.81 769.624 z"/>
<path transform="translate(0,0)" fill="url(#Gradient6)" d="M 1410.98 526.748 C 1416.42 519.142 1421.81 509.024 1429.01 503.143 C 1482.45 511.843 1548.83 564.559 1580.44 608.502 C 1624.1 669.224 1644.89 741.719 1632.79 816.27 C 1628.94 839.944 1622.74 864.293 1612.51 886.019 C 1607.27 904.633 1590.43 926.413 1579.88 942.904 C 1580.91 933.315 1581.42 923.746 1581.9 914.119 C 1580.24 874.173 1563.26 833.706 1539.17 801.904 C 1496.98 746.19 1447.67 751.065 1384.55 749.918 C 1374.56 749.736 1363.82 750.758 1353.98 749.427 L 1354.18 748.78 C 1370.37 748.931 1400.11 751.287 1414.66 748.565 L 1415.09 747.522 C 1412.19 740.477 1410.71 721.588 1408.77 712.174 C 1406.3 700.25 1402.45 688.682 1400.07 676.768 C 1399.1 671.886 1399.73 665.248 1397.84 660.836 C 1391.99 647.15 1390.35 631.899 1386.31 617.578 C 1383.54 607.753 1379 598.591 1376.21 588.734 C 1375.25 589.26 1375.69 588.893 1374.93 590.115 C 1372.49 594.025 1369.91 597.283 1366.88 600.721 C 1370.31 594.83 1374.3 589.306 1378.2 583.721 C 1378.44 580.242 1378.4 575.917 1379.62 572.64 C 1384.83 558.604 1400.8 538.119 1410.98 526.748 z"/>
<path transform="translate(0,0)" fill="rgb(101,86,132)" d="M 1410.98 526.748 C 1416.42 519.142 1421.81 509.024 1429.01 503.143 C 1482.45 511.843 1548.83 564.559 1580.44 608.502 C 1624.1 669.224 1644.89 741.719 1632.79 816.27 C 1628.94 839.944 1622.74 864.293 1612.51 886.019 C 1607.27 904.633 1590.43 926.413 1579.88 942.904 C 1580.91 933.315 1581.42 923.746 1581.9 914.119 C 1592.45 896.084 1593.3 806.764 1591.85 785.053 C 1590.73 768.328 1588.19 751.102 1584.27 734.826 C 1568.37 668.964 1523.65 599.927 1468.58 560.283 C 1457.89 552.624 1446.7 545.71 1435.06 539.593 C 1427.69 535.694 1419.76 532.274 1412.7 527.846 L 1410.98 526.748 z"/>
<path transform="translate(0,0)" fill="rgb(251,251,177)" d="M 1429.01 503.143 C 1482.45 511.843 1548.83 564.559 1580.44 608.502 C 1624.1 669.224 1644.89 741.719 1632.79 816.27 C 1628.94 839.944 1622.74 864.293 1612.51 886.019 C 1612.02 877.747 1619.43 862.854 1621.4 853.859 C 1631.7 808.428 1631.92 761.294 1622.05 715.768 C 1604.6 638.834 1550.29 573.076 1484.18 531.868 C 1472.12 524.328 1459.67 517.427 1446.89 511.194 C 1441.79 508.743 1434.91 507.176 1430.34 504.087 C 1429.89 503.783 1429.46 503.458 1429.01 503.143 z"/>
<path transform="translate(0,0)" fill="rgb(104,54,90)" d="M 1637.42 720.078 C 1664 720.551 1690.66 720.137 1717.25 720.265 C 1761.52 720.68 1805.78 720.715 1850.05 720.369 C 1825.26 744.453 1801.04 769.115 1777.41 794.335 C 1759 814.727 1740.08 834.65 1721.74 855.131 L 1632.03 855.15 C 1644.37 810.527 1646.71 765.533 1637.42 720.078 z"/>
<path transform="translate(0,0)" fill="rgb(240,88,88)" d="M 668.844 338.002 C 690.039 323.158 714.567 311.582 738.169 301.117 C 860.551 246.851 1009.13 229.771 1140.89 252.876 C 1210.69 265.409 1278.3 288.039 1341.59 320.053 C 1351.54 325.107 1364.82 330.763 1373 338.26 C 1374.39 340.122 1375.19 341.434 1377.28 342.588 C 1388.17 343.077 1399.91 351.727 1409.01 357.363 C 1458.26 387.861 1504.86 427.075 1544.24 469.539 C 1544.45 469.767 1544.65 470.001 1544.86 470.231 C 1546.05 471.453 1547.31 472.632 1548.34 473.989 C 1521.8 478.394 1493.42 472.091 1466.87 475.898 C 1454.98 475.751 1441.78 476.823 1430.05 475.199 C 1427.03 474.948 1424.04 474.663 1421.03 474.28 L 1418.7 471.051 C 1416.51 466.512 1412.82 462.429 1409.69 458.493 C 1363.98 400.965 1291.56 357.664 1218 349.521 C 1110.7 337.644 1034.1 371.945 952.494 437.654 C 948.474 443.484 930.538 460.22 924.428 465.55 C 907.883 466.715 890.995 466.239 874.406 466.319 L 773.912 466.142 L 505.027 465.887 C 550.469 417.879 602.363 376.422 659.221 342.705 C 663.254 343.391 667.16 343.601 671.244 343.747 L 671.707 342.18 C 698.833 339.992 726.941 341.772 754.209 341.667 L 930.286 341.485 L 981.169 341.486 C 989.177 341.492 998.064 342.585 1005.89 341.091 L 1006.04 339.835 C 998.195 338.436 989.018 339.352 981.01 339.399 C 966.573 339.53 952.136 339.534 937.699 339.412 C 861.031 338.873 784.343 340.473 707.649 340.342 C 703.686 340.335 671.236 341.288 670.527 341.032 C 669.236 340.564 669.247 339.185 668.844 338.002 z"/>
<path transform="translate(0,0)" fill="rgb(169,26,72)" d="M 659.221 342.705 C 663.254 343.391 667.16 343.601 671.244 343.747 C 724.406 344.513 777.659 343.905 830.829 343.749 C 845.313 343.706 881.045 341.616 892.492 343.961 C 892.989 344.17 893.48 344.395 893.983 344.59 C 898.489 346.336 906.508 345.441 911.449 345.43 C 930.658 345.385 973.945 342.502 990.492 346.371 C 994.825 347.385 998.265 348.845 1001.31 352.119 C 1001.06 354.228 1001.46 353.232 999.898 355.016 C 1005.49 359.687 1007.12 356.695 1008.09 366.182 C 1009.4 379.025 999.938 393.944 991.729 403.329 C 984.187 411.952 954.316 429.613 952.494 437.654 C 948.474 443.484 930.538 460.22 924.428 465.55 C 907.883 466.715 890.995 466.239 874.406 466.319 L 773.912 466.142 L 505.027 465.887 C 550.469 417.879 602.363 376.422 659.221 342.705 z"/>
<path transform="translate(0,0)" fill="rgb(240,88,88)" d="M 1377.28 342.588 C 1388.17 343.077 1399.91 351.727 1409.01 357.363 C 1458.26 387.861 1504.86 427.075 1544.24 469.539 C 1544.45 469.767 1544.65 470.001 1544.86 470.231 C 1546.05 471.453 1547.31 472.632 1548.34 473.989 C 1521.8 478.394 1493.42 472.091 1466.87 475.898 C 1454.98 475.751 1441.78 476.823 1430.05 475.199 C 1427.03 474.948 1424.04 474.663 1421.03 474.28 L 1418.7 471.051 C 1416.51 466.512 1412.82 462.429 1409.69 458.493 C 1363.98 400.965 1291.56 357.664 1218 349.521 C 1110.7 337.644 1034.1 371.945 952.494 437.654 C 954.316 429.613 984.187 411.952 991.729 403.329 C 999.938 393.944 1009.4 379.025 1008.09 366.182 C 1007.12 356.695 1005.49 359.687 999.898 355.016 C 1001.46 353.232 1001.06 354.228 1001.31 352.119 C 998.265 348.845 994.825 347.385 990.492 346.371 C 973.945 342.502 930.658 345.385 911.449 345.43 C 906.508 345.441 898.489 346.336 893.983 344.59 C 893.48 344.395 892.989 344.17 892.492 343.961 C 939.435 342.384 986.908 343.774 1033.89 343.785 C 1092.73 343.798 1151.58 342.71 1210.42 343.228 C 1248.7 343.822 1286.99 343.917 1325.28 343.514 C 1342.53 343.343 1360.08 343.77 1377.28 342.588 z"/>
<path transform="translate(0,0)" fill="rgb(34,0,26)" d="M 1418.7 471.051 C 1432.81 470.184 1447.32 470.759 1461.48 470.656 C 1489.27 470.375 1517.07 470.233 1544.86 470.231 C 1546.05 471.453 1547.31 472.632 1548.34 473.989 C 1521.8 478.394 1493.42 472.091 1466.87 475.898 C 1454.98 475.751 1441.78 476.823 1430.05 475.199 C 1427.03 474.948 1424.04 474.663 1421.03 474.28 L 1418.7 471.051 z"/>
<path transform="translate(0,0)" fill="rgb(34,0,26)" d="M 668.844 338.002 L 1142.86 338.192 C 1219.51 338.267 1296.39 336.518 1373 338.26 C 1374.39 340.122 1375.19 341.434 1377.28 342.588 C 1360.08 343.77 1342.53 343.343 1325.28 343.514 C 1286.99 343.917 1248.7 343.822 1210.42 343.228 C 1151.58 342.71 1092.73 343.798 1033.89 343.785 C 986.908 343.774 939.435 342.384 892.492 343.961 C 881.045 341.616 845.313 343.706 830.829 343.749 C 777.659 343.905 724.406 344.513 671.244 343.747 L 671.707 342.18 C 698.833 339.992 726.941 341.772 754.209 341.667 L 930.286 341.485 L 981.169 341.486 C 989.177 341.492 998.064 342.585 1005.89 341.091 L 1006.04 339.835 C 998.195 338.436 989.018 339.352 981.01 339.399 C 966.573 339.53 952.136 339.534 937.699 339.412 C 861.031 338.873 784.343 340.473 707.649 340.342 C 703.686 340.335 671.236 341.288 670.527 341.032 C 669.236 340.564 669.247 339.185 668.844 338.002 z"/>
<path transform="translate(0,0)" fill="url(#Gradient5)" d="M 1619.1 1064.2 C 1619.89 1066.41 1620.09 1066.62 1618.94 1068.82 C 1612.84 1080.47 1601.89 1091.99 1594.01 1102.66 C 1579.53 1122.27 1565.95 1142.53 1551.04 1161.83 L 1563.61 1161.86 C 1583.03 1162.7 1692.3 1160.01 1699.8 1162.79 C 1699.39 1164.41 1699.25 1165.19 1697.58 1165.86 C 1696.97 1166.1 1695.74 1166.18 1695.06 1166.25 L 1697.61 1167.28 C 1697.95 1172.38 1694 1180.53 1692.28 1185.65 C 1679.07 1225 1663.28 1263.63 1641.47 1299.08 C 1624.48 1299.18 1606.73 1298.25 1589.84 1299.8 C 1600.22 1300.47 1633.43 1298.2 1640.44 1301.54 C 1636.87 1303.83 1630.9 1304.13 1626.7 1304.36 C 1612.45 1305.12 1597.62 1304.1 1583.31 1304.08 L 1482.2 1303.75 C 1472.93 1303.71 1451.07 1301.88 1443.5 1304.51 C 1459.16 1307 1485.98 1305.12 1502.82 1305.13 L 1637.69 1305.18 C 1616.1 1341.09 1594 1374.85 1566.96 1407.01 C 1556.82 1419.06 1545.49 1430 1535.18 1441.87 C 1534.28 1444.13 1533.2 1445.2 1530.98 1446.29 C 1530.2 1446.67 1529.7 1446.73 1528.91 1446.9 C 1526.08 1452.77 1517.32 1459.34 1512.52 1463.87 C 1480.74 1494.3 1446.18 1521.71 1409.31 1545.74 C 1401.14 1551.08 1392.09 1557.74 1383.15 1561.61 C 1374.79 1568.38 1362.38 1573.83 1352.7 1578.8 C 1304.47 1603.56 1251.74 1626.91 1198.18 1637.07 C 1214.69 1609.88 1236.3 1585.35 1254.52 1559.24 L 1253.34 1559.09 C 1253.52 1558.43 1253.62 1557.74 1253.88 1557.11 C 1255.86 1552.41 1287.93 1510.81 1293.28 1503.59 C 1299.27 1495.5 1332.01 1448.14 1337.8 1445.69 C 1343.63 1443.21 1362.13 1444.9 1369.36 1444.91 C 1388.67 1444.93 1523.01 1447.25 1531.69 1443.59 C 1525.72 1441.39 1503.41 1443 1495.41 1443 C 1478.99 1443 1344.79 1444.28 1341.29 1442.32 L 1340.99 1440.48 C 1344.14 1433.18 1351.36 1425.43 1356.1 1418.97 L 1400.32 1359.6 L 1490.28 1238.1 C 1508.53 1213.58 1526.14 1188.07 1546.58 1165.3 C 1556.61 1164.42 1566.93 1164.82 1577 1164.75 L 1648.58 1164.97 C 1660.4 1164.96 1672.3 1165.22 1684.07 1165.1 C 1687.88 1165.07 1691.64 1163.99 1695.45 1164.5 C 1697.38 1164.76 1696.49 1164.9 1697.96 1164.41 C 1691.44 1161.03 1597.6 1162.82 1582.73 1163 C 1572.56 1163.12 1560.51 1165.03 1550.66 1162.72 C 1549.38 1155.65 1613.08 1079.64 1618.88 1064.84 L 1619.1 1064.2 z"/>
<path transform="translate(0,0)" fill="rgb(57,103,134)" d="M 1443.5 1304.51 C 1459.16 1307 1485.98 1305.12 1502.82 1305.13 L 1637.69 1305.18 C 1616.1 1341.09 1594 1374.85 1566.96 1407.01 C 1556.82 1419.06 1545.49 1430 1535.18 1441.87 C 1514.06 1440.9 1492.6 1441.62 1471.43 1441.58 C 1427.97 1441.44 1384.5 1441.55 1341.05 1441.92 C 1352.08 1429.55 1361.41 1414.62 1371.31 1401.27 C 1395.27 1368.98 1418.94 1336.32 1443.5 1304.51 z"/>
<path transform="translate(0,0)" fill="rgb(53,160,174)" d="M 1337.76 1447.01 C 1401.22 1447.09 1465.54 1448.92 1528.91 1446.9 C 1526.08 1452.77 1517.32 1459.34 1512.52 1463.87 C 1480.74 1494.3 1446.18 1521.71 1409.31 1545.74 C 1401.14 1551.08 1392.09 1557.74 1383.15 1561.61 C 1374.79 1568.38 1362.38 1573.83 1352.7 1578.8 C 1304.47 1603.56 1251.74 1626.91 1198.18 1637.07 C 1214.69 1609.88 1236.3 1585.35 1254.52 1559.24 C 1262.82 1549.75 1270.03 1538.69 1277.56 1528.54 C 1282.74 1518.94 1290.94 1509.61 1297.46 1500.81 C 1310.73 1482.76 1324.17 1464.82 1337.76 1447.01 z"/>
<path transform="translate(0,0)" fill="rgb(53,219,217)" d="M 1277.56 1528.54 L 1278.04 1530.18 C 1275.42 1534.84 1269.55 1540.43 1268.06 1545.11 C 1280.43 1553.7 1316.33 1560.83 1331.81 1563.21 C 1342.73 1564.89 1355.95 1564.09 1365.63 1569.71 C 1370.81 1566.87 1376.03 1564.11 1381.05 1560.99 C 1382.89 1561.14 1382.27 1560.74 1383.15 1561.61 C 1374.79 1568.38 1362.38 1573.83 1352.7 1578.8 C 1304.47 1603.56 1251.74 1626.91 1198.18 1637.07 C 1214.69 1609.88 1236.3 1585.35 1254.52 1559.24 C 1262.82 1549.75 1270.03 1538.69 1277.56 1528.54 z"/>
<path transform="translate(0,0)" fill="rgb(6,1,28)" d="M 1619.1 1064.2 C 1619.89 1066.41 1620.09 1066.62 1618.94 1068.82 C 1612.84 1080.47 1601.89 1091.99 1594.01 1102.66 C 1579.53 1122.27 1565.95 1142.53 1551.04 1161.83 L 1563.61 1161.86 C 1583.03 1162.7 1692.3 1160.01 1699.8 1162.79 C 1699.39 1164.41 1699.25 1165.19 1697.58 1165.86 C 1696.97 1166.1 1695.74 1166.18 1695.06 1166.25 L 1601.37 1166.28 C 1583.37 1166.29 1565.13 1165.64 1547.18 1166.84 C 1528.41 1188.66 1511.59 1212.04 1494.49 1235.17 L 1446.12 1300.1 L 1541.34 1299.82 C 1557.41 1299.8 1573.79 1299.15 1589.84 1299.8 C 1600.22 1300.47 1633.43 1298.2 1640.44 1301.54 C 1636.87 1303.83 1630.9 1304.13 1626.7 1304.36 C 1612.45 1305.12 1597.62 1304.1 1583.31 1304.08 L 1482.2 1303.75 C 1472.93 1303.71 1451.07 1301.88 1443.5 1304.51 C 1418.94 1336.32 1395.27 1368.98 1371.31 1401.27 C 1361.41 1414.62 1352.08 1429.55 1341.05 1441.92 C 1384.5 1441.55 1427.97 1441.44 1471.43 1441.58 C 1492.6 1441.62 1514.06 1440.9 1535.18 1441.87 C 1534.28 1444.13 1533.2 1445.2 1530.98 1446.29 C 1530.2 1446.67 1529.7 1446.73 1528.91 1446.9 C 1465.54 1448.92 1401.22 1447.09 1337.76 1447.01 C 1324.17 1464.82 1310.73 1482.76 1297.46 1500.81 C 1290.94 1509.61 1282.74 1518.94 1277.56 1528.54 C 1270.03 1538.69 1262.82 1549.75 1254.52 1559.24 L 1253.34 1559.09 C 1253.52 1558.43 1253.62 1557.74 1253.88 1557.11 C 1255.86 1552.41 1287.93 1510.81 1293.28 1503.59 C 1299.27 1495.5 1332.01 1448.14 1337.8 1445.69 C 1343.63 1443.21 1362.13 1444.9 1369.36 1444.91 C 1388.67 1444.93 1523.01 1447.25 1531.69 1443.59 C 1525.72 1441.39 1503.41 1443 1495.41 1443 C 1478.99 1443 1344.79 1444.28 1341.29 1442.32 L 1340.99 1440.48 C 1344.14 1433.18 1351.36 1425.43 1356.1 1418.97 L 1400.32 1359.6 L 1490.28 1238.1 C 1508.53 1213.58 1526.14 1188.07 1546.58 1165.3 C 1556.61 1164.42 1566.93 1164.82 1577 1164.75 L 1648.58 1164.97 C 1660.4 1164.96 1672.3 1165.22 1684.07 1165.1 C 1687.88 1165.07 1691.64 1163.99 1695.45 1164.5 C 1697.38 1164.76 1696.49 1164.9 1697.96 1164.41 C 1691.44 1161.03 1597.6 1162.82 1582.73 1163 C 1572.56 1163.12 1560.51 1165.03 1550.66 1162.72 C 1549.38 1155.65 1613.08 1079.64 1618.88 1064.84 L 1619.1 1064.2 z"/>
<path transform="translate(0,0)" fill="rgb(124,22,71)" d="M 499.631 471.936 C 514.456 471.013 529.681 471.697 544.539 471.764 L 621.352 471.96 L 869.038 471.863 C 856.784 486.059 846.598 502.985 835.558 518.236 C 816.456 544.509 797.019 570.537 777.254 596.315 L 407.614 596.041 C 414.155 585.952 420.002 575.413 426.599 565.336 C 445.985 535.725 474.757 496.896 499.631 471.936 z"/>
<path transform="translate(0,0)" fill="url(#Gradient4)" d="M 199.916 721.08 L 682.727 720.7 C 666.026 743.269 649.903 766.257 633.146 788.787 C 619.922 805.812 606.815 822.928 593.827 840.133 L 307.246 840.08 C 290.451 822.169 274.405 803.479 257.977 785.227 C 238.678 763.786 219.034 742.694 199.916 721.08 z"/>
<path transform="translate(0,0)" fill="url(#Gradient3)" d="M 404.646 600.964 C 422.512 601.611 440.57 601.07 458.453 601.055 L 559.097 600.894 L 773.663 600.924 C 762.595 614.378 752.654 628.991 742.291 643.002 C 728.687 661.279 714.837 679.372 700.748 697.277 C 696.102 702.951 691.699 708.856 687.21 714.656 L 351.406 714.369 C 365.425 674.521 382.77 637.138 404.646 600.964 z"/>
<path transform="translate(0,0)" fill="url(#Gradient2)" d="M 457.562 1308.5 C 507.238 1308.16 557.148 1307.35 606.802 1308.64 C 620.803 1324.72 632.886 1342.39 645.269 1359.72 C 664.844 1387.1 684.169 1414.58 704.935 1441.09 L 660.25 1441.22 L 513.776 1441.95 C 474.423 1402.89 437.917 1356.78 410.379 1308.63 C 426.094 1308.84 441.844 1308.56 457.562 1308.5 z"/>
<path transform="translate(0,0)" fill="url(#Gradient1)" d="M 400.028 1166.5 L 499.138 1166.45 C 512.724 1182.01 524.547 1199.44 536.967 1215.93 L 602.19 1302.32 L 546.773 1302.51 L 407.398 1303.09 C 381.26 1260.7 362.336 1213.5 345.587 1166.78 C 363.72 1166.43 381.89 1166.58 400.028 1166.5 z"/>
<path transform="translate(0,0)" fill="rgb(53,160,174)" d="M 521.586 1448.97 C 584.197 1449.78 646.943 1448.17 709.571 1447.92 C 719.791 1458.74 728.545 1471.78 737.498 1483.67 C 747.853 1497.43 758.995 1511.08 768.286 1525.56 L 816.198 1590.86 C 826.834 1605.12 839.764 1619.76 847.947 1635.51 C 798.427 1621.27 750.335 1602.47 704.292 1579.33 C 690.16 1572.28 675.411 1565.07 662.151 1556.49 C 654.364 1554.35 644.829 1547.02 637.847 1542.56 C 595.347 1515.42 556.894 1484.94 521.586 1448.97 z"/>
<path transform="translate(0,0)" fill="rgb(53,219,217)" d="M 662.151 1556.49 C 666.405 1556.5 668.949 1558.72 672.511 1560.59 C 677.807 1563.36 688.542 1559.26 694.285 1557.91 C 714.151 1553.23 750.359 1554.17 766.072 1547.78 C 769.087 1546.55 773.003 1541.81 774.276 1538.87 C 773.709 1534.67 770.097 1531.15 767.796 1527.54 L 768.286 1525.56 L 816.198 1590.86 C 826.834 1605.12 839.764 1619.76 847.947 1635.51 C 798.427 1621.27 750.335 1602.47 704.292 1579.33 C 690.16 1572.28 675.411 1565.07 662.151 1556.49 z"/>
<path transform="translate(0,0)" fill="rgb(104,54,90)" d="M 387.098 846.484 C 420.281 845.8 453.581 846.331 486.777 846.221 C 520.656 846.109 554.725 845.313 588.573 846.79 C 575.901 866.215 561.028 884.786 547.356 903.548 C 526.531 932.126 506.169 961.021 485.124 989.44 L 463.443 1018.99 C 441.029 996.6 421.169 970.33 400.92 945.979 C 372.89 912.273 343.783 878.889 313.819 846.909 C 338.246 846.893 362.673 846.751 387.098 846.484 z"/>
<path transform="translate(0,0)" fill="rgb(57,60,98)" d="M 316.125 1022.15 L 398.311 1022.15 C 418.474 1022.17 438.749 1021.64 458.819 1023.85 C 450.483 1039.29 437.127 1056.18 424.793 1068.64 C 430.878 1079.97 441.169 1090.42 449.158 1100.58 C 460.175 1114.59 470.575 1129.13 481.299 1143.37 C 485.558 1149.46 490.328 1155.19 494.961 1160.99 L 344.364 1161.81 C 328.892 1116.84 321.273 1069.27 316.125 1022.15 z"/>
<path transform="translate(0,0)" fill="rgb(57,60,98)" d="M 1600.91 1021.78 C 1642.54 1023.44 1684.56 1021.63 1726.26 1022.06 C 1721.73 1068.12 1714.8 1116.89 1700.61 1161.08 L 1612.14 1161.36 C 1596.34 1161.32 1579.29 1159.95 1563.61 1161.86 L 1551.04 1161.83 C 1565.95 1142.53 1579.53 1122.27 1594.01 1102.66 C 1601.89 1091.99 1612.84 1080.47 1618.94 1068.82 C 1620.09 1066.62 1619.89 1066.41 1619.1 1064.2 C 1613.22 1056.43 1592.3 1031.82 1591.55 1023.12 C 1593.86 1021.44 1598.08 1021.86 1600.91 1021.78 z"/>
<path transform="translate(0,0)" fill="rgb(57,60,98)" d="M 320.262 868.574 C 320.616 868.822 320.989 869.044 321.324 869.317 C 327.841 874.621 444.866 1012.05 445.739 1014.09 C 445.973 1014.64 445.903 1015.28 445.985 1015.87 L 443.25 1016.26 C 400.863 1016.47 358.18 1017.62 315.825 1016.34 C 313.544 966.731 315.389 917.965 320.262 868.574 z"/>
</svg>
